<svg xmlns="http://www.w3.org/2000/svg" version="1.1" xmlns:xlink="http://www.w3.org/1999/xlink" xmlns:svgjs="http://svgjs.dev/svgjs" width="100%" height="100%" viewBox="0 0 1000 600"><rect width="1000" height="600" x="0" y="0" fill="white"/><g><circle r="166.66666666666666" cx="371.93085734049475" cy="394.15306560538215" fill="red" transform="matrix(0.6089713854812658,0,0,0.6089713854812658,0,59.97207537077401)"/><path d="M250.21253881730243 465.53254485120743L250.21253881730243 459.1270491941262L264.66667901741187 459.1270491941262Q270.0695753542543 459.1270491941262 270.0695753542543 453.696302876166L270.0695753542543 453.696302876166L270.0695753542543 334.5819336355726Q270.0695753542543 331.79693552379814 268.7606262417203 330.48798641126416Q267.47952711030405 329.1790372987302 264.66667901741187 329.1790372987302L264.66667901741187 329.1790372987302L250.21253881730243 329.1790372987302L250.21253881730243 322.77354164164893L311.5938972008114 322.77354164164893L311.5938972008114 329.1790372987302L293.9370091721613 329.1790372987302Q291.12416107926913 329.1790372987302 289.81521196673515 330.48798641126416Q288.53411283531887 331.79693552379814 288.53411283531887 334.5819336355726L288.53411283531887 334.5819336355726L288.53411283531887 453.696302876166Q288.53411283531887 459.1270491941262 293.9370091721613 459.1270491941262L293.9370091721613 459.1270491941262L314.1839454447616 459.1270491941262Q324.82263823174003 459.1270491941262 333.2333325292989 454.30900246075635Q341.6718768079754 449.49095572738656 345.87722395675485 440.2726119774131L345.87722395675485 440.2726119774131Q349.07997178529547 433.4493666035657 351.1965703502441 425.73492183395047Q353.2853189340749 418.02047706433524 354.28791825431375 412.58973074637504Q355.2905175745525 407.1868344095326 355.4854674423767 405.76648537252765L355.4854674423767 405.76648537252765L360.49846404357083 405.76648537252765L358.71606525203515 465.53254485120743L250.21253881730243 465.53254485120743ZM445.52445639604485 469.1530423965142Q426.8928190282738 469.1530423965142 413.44127814840317 458.31939974171155Q400.01758724965026 447.4857570869089 393.0829419513319 429.9402689827299Q386.1761466341312 412.3947808785508 386.1761466341312 392.95549405836516L386.1761466341312 392.95549405836516Q386.1761466341312 372.6807078046471 392.99939200797866 355.8593192095294Q399.8226373818261 339.01008063329397 412.43867882816437 329.06763737425916Q425.08257025562034 319.15304409634217 441.93180883185573 319.15304409634217L441.93180883185573 319.15304409634217Q450.732402865063 319.15304409634217 458.55824755914927 323.1634413772974Q466.3840922532355 327.1738386582526 471.3970888544295 331.79693552379814L471.3970888544295 331.79693552379814Q476.2151355877993 336.1972325404018 477.80258451151076 336.1972325404018L477.80258451151076 336.1972325404018Q479.4178834163399 336.1972325404018 480.1141329442835 335.194633220163Q480.81038247222716 334.1920338999242 481.61803192464174 331.99188539162236L481.61803192464174 331.99188539162236L485.4334793377727 320.76834300117133L490.4464759389667 320.76834300117133L491.2541253913813 382.9295008559771L485.62842920559694 382.9295008559771Q481.2281321889933 363.8801137714399 474.2099369473217 350.9298725516887Q467.1917417056501 338.00748131305517 458.86459735144444 331.79693552379814Q450.5374529972388 325.5585397534234 442.3217085675042 325.5585397534234L442.3217085675042 325.5585397534234Q423.27232148296696 325.5585397534234 415.3629268455275 342.82552804642495Q407.4256822269703 360.06466635830884 407.4256822269703 392.95549405836516L407.4256822269703 392.95549405836516Q407.4256822269703 426.82107109754253 415.641426656705 444.78430891848774Q423.8850210675573 462.7196967583152 445.52445639604485 462.7196967583152L445.52445639604485 462.7196967583152Q464.76879334840635 462.7196967583152 474.9061864752654 448.3769564826768Q485.0435796021244 434.06206618815605 486.4360786580115 413.59233006661384L486.4360786580115 413.59233006661384L493.64922376750746 413.59233006661384Q493.0643741640347 425.4285720416553 488.74762709078436 438.0724634691113Q484.4308800175339 450.6885049154495 473.79218723055556 459.90684866542296Q463.1813444246949 469.1530423965142 445.52445639604485 469.1530423965142L445.52445639604485 469.1530423965142Z " fill="#ffffff" transform="matrix(0.6089713854812658,0,0,0.6089713854812658,0,59.97207537077401)"/><path d="M621.9308768299977 465.53254485120743L621.9308768299977 459.1270491941262L636.3850170301071 459.1270491941262Q641.7879133669495 459.1270491941262 641.7879133669495 453.696302876166L641.7879133669495 453.696302876166L641.7879133669495 334.5819336355726Q641.7879133669495 331.79693552379814 640.4789642544156 330.48798641126416Q639.1978651229992 329.1790372987302 636.3850170301071 329.1790372987302L636.3850170301071 329.1790372987302L621.9308768299977 329.1790372987302L621.9308768299977 322.77354164164893L683.3122352135066 322.77354164164893L683.3122352135066 329.1790372987302L665.6553471848565 329.1790372987302Q662.8424990919643 329.1790372987302 661.5335499794304 330.48798641126416Q660.2524508480142 331.79693552379814 660.2524508480142 334.5819336355726L660.2524508480142 334.5819336355726L660.2524508480142 453.696302876166Q660.2524508480142 459.1270491941262 665.6553471848565 459.1270491941262L665.6553471848565 459.1270491941262L685.9022834574569 459.1270491941262Q696.5409762444353 459.1270491941262 704.9516705419942 454.30900246075635Q713.3902148206707 449.49095572738656 717.5955619694502 440.2726119774131L717.5955619694502 440.2726119774131Q720.7983097979908 433.4493666035657 722.9149083629394 425.73492183395047Q725.0036569467702 418.02047706433524 726.006256267009 412.58973074637504Q727.0088555872478 407.1868344095326 727.203805455072 405.76648537252765L727.203805455072 405.76648537252765L732.216802056266 405.76648537252765L730.4344032647303 465.53254485120743L621.9308768299977 465.53254485120743ZM789.9776628944682 467.9276432273334Q775.3285728265346 467.9276432273334 769.2294269617486 458.9042493451842Q763.1024311158448 449.88085546303495 763.1024311158448 437.2648140166967L763.1024311158448 437.2648140166967L763.1024311158448 383.31940059162554Q763.1024311158448 380.9243022154995 762.099831795606 379.9217028952607Q761.0972324753672 378.9191035750219 758.7021340992411 378.9191035750219L758.7021340992411 378.9191035750219L750.2635898205644 378.9191035750219L750.2635898205644 374.1010568416521L777.5565713159541 374.1010568416521L777.5565713159541 441.0802614298277Q777.5565713159541 449.88085546303495 781.06566893679 456.1192512334098Q784.5747665576257 462.3297970226668 792.9854608551846 462.3297970226668L792.9854608551846 462.3297970226668Q800.0036560968562 462.3297970226668 805.5179523581696 457.400350364826Q811.0322486194831 452.49875368810297 814.1514465046704 443.97665946607316Q817.2427944087401 435.4545652440433 817.2427944087401 425.03867230600684L817.2427944087401 425.03867230600684L817.2427944087401 383.31940059162554Q817.2427944087401 380.9243022154995 816.2401950885013 379.9217028952607Q815.2375957682625 378.9191035750219 812.8424973921365 378.9191035750219L812.8424973921365 378.9191035750219L804.4039531134598 378.9191035750219L804.4039531134598 374.1010568416521L831.6969346088495 374.1010568416521L831.6969346088495 456.31420110123395Q831.6969346088495 458.70929947736 832.6995339290883 459.71189879759874Q833.7021332493271 460.71449811783765 836.0972316254531 460.71449811783765L836.0972316254531 460.71449811783765L844.507925923012 460.71449811783765L844.507925923012 465.53254485120743L817.2427944087401 465.53254485120743L817.2427944087401 449.1010559917381L816.4351449563254 448.87825614279615Q811.8398980718977 458.51434960953577 805.0166526980503 463.2209964184346Q798.1934073242028 467.9276432273334 789.9776628944682 467.9276432273334L789.9776628944682 467.9276432273334ZM857.7645169350584 465.53254485120743L857.7645169350584 460.71449811783765L862.9724634040766 460.71449811783765Q867.7905101374464 460.71449811783765 870.993257965987 457.81810008159215Q874.1960057945277 454.89385206422895 877.5937034908925 449.6859055952107L877.5937034908925 449.6859055952107L895.8632911041328 422.4207740809388L871.3831577016355 383.31940059162554Q869.795708777924 380.9243022154995 868.2918097975659 379.9217028952607Q866.7879108172076 378.9191035750219 863.3623631397251 378.9191035750219L863.3623631397251 378.9191035750219L858.5443164063552 378.9191035750219L858.5443164063552 374.1010568416521L898.2583894802589 374.1010568416521L898.2583894802589 378.9191035750219L893.4403427468891 378.9191035750219Q889.4299454659339 378.9191035750219 889.4299454659339 382.9295008559771L889.4299454659339 382.9295008559771Q889.4299454659339 385.1296493642789 890.6274946539969 387.1348480047565L890.6274946539969 387.1348480047565L904.468935269516 409.58193278565864L917.6976763004446 389.94769609764876Q919.5079250730979 387.32979787258074 919.5079250730979 383.51435045944976L919.5079250730979 383.51435045944976Q919.5079250730979 381.31420195114794 918.0040260927398 380.1166527630849Q916.5001271123816 378.9191035750219 914.6898783397281 378.9191035750219L914.6898783397281 378.9191035750219L909.899681587476 378.9191035750219L909.899681587476 374.1010568416521L944.7678579468923 374.1010568416521L944.7678579468923 378.9191035750219L939.7548613456983 378.9191035750219Q935.5495141969188 378.9191035750219 932.3467663683782 380.9243022154995Q929.1440185398376 382.9295008559771 925.9412707112971 387.7196976082292L925.9412707112971 387.7196976082292L907.6716830980566 414.59492938685264L933.1544158207928 455.50655164881937Q934.9646645934462 458.31939974171155 936.7470633849819 459.5169489297746Q938.5573121576352 460.71449811783765 942.9854591553566 460.71449811783765L942.9854591553566 460.71449811783765L947.5807060397844 460.71449811783765L947.5807060397844 465.53254485120743L905.889284306521 465.53254485120743L905.889284306521 460.71449811783765L911.9048802279538 460.71449811783765Q914.1050287362556 460.71449811783765 915.3025779243186 459.82329872206975Q916.5001271123816 458.9042493451842 916.5001271123816 457.3168004214728L916.5001271123816 457.3168004214728Q916.5001271123816 456.31420110123395 916.1102273767332 455.2002018565242Q915.692477659967 454.1140525929322 915.1076280564943 453.1114532726933L915.1076280564943 453.1114532726933L899.0660389326735 427.4337706821329L885.4195481849787 447.6807069547332Q882.4117502242622 452.49875368810297 882.4117502242622 454.6989021964048L882.4117502242622 454.6989021964048Q882.4117502242622 460.71449811783765 887.4247468254563 460.71449811783765L887.4247468254563 460.71449811783765L891.045244370763 460.71449811783765L891.045244370763 465.53254485120743L857.7645169350584 465.53254485120743ZM1001.3311695970314 467.9276432273334Q982.6716822481427 467.9276432273334 971.3367399332205 455.31160178099515Q960.0296475994163 442.6677103535391 960.0296475994163 420.22062557263706L960.0296475994163 420.22062557263706Q960.0296475994163 407.3817842773568 965.0426442006103 396.241791830259Q970.0556408018043 385.1296493642789 978.9676347594825 378.4178039149025Q987.8796287171608 371.6781084844083 998.9082212397876 371.6781084844083L998.9082212397876 371.6781084844083Q1011.1622129315953 371.6781084844083 1018.9602076445636 378.30640399043153Q1026.7860523386498 384.9346994964547 1030.2951499594856 395.04424264219597Q1033.8042475803215 405.181635769055 1033.8042475803215 415.79247857491566L1033.8042475803215 415.79247857491566Q1033.8042475803215 418.02047706433524 1032.4117485244342 418.71672659227886Q1030.9913994874294 419.4129761202225 1027.5937017910646 419.4129761202225L1027.5937017910646 419.4129761202225L977.6586856469486 419.4129761202225Q977.6586856469486 439.4649625249985 983.3679317760863 451.30120450003994Q989.1050278863416 463.1374464750814 1002.1388190494459 463.1374464750814L1002.1388190494459 463.1374464750814Q1011.3571627994194 463.1374464750814 1019.4615073046831 456.1192512334098Q1027.5937017910646 449.1010559917381 1029.7938502993663 434.2570160559803L1029.7938502993663 434.2570160559803L1034.6118970327361 434.2570160559803Q1033.414347844673 448.87825614279615 1024.474503905877 458.4029496850648Q1015.5625099481989 467.9276432273334 1001.3311695970314 467.9276432273334L1001.3311695970314 467.9276432273334ZM977.6586856469486 414.59492938685264L1016.5651092684376 414.59492938685264Q1016.5651092684376 398.55334026303177 1012.3597621196583 387.52474774040496Q1008.1544149708787 376.49615521777815 998.5183215041392 376.49615521777815L998.5183215041392 376.49615521777815Q988.297378433927 376.49615521777815 982.9780320404378 387.636147664876Q977.6586856469486 398.748290130856 977.6586856469486 414.59492938685264L977.6586856469486 414.59492938685264ZM1116.0173918399032 469.1530423965142Q1097.3857544721322 469.1530423965142 1083.9342135922616 458.31939974171155Q1070.5105226935088 447.4857570869089 1063.5758773951904 429.9402689827299Q1056.66908207799 412.3947808785508 1056.66908207799 392.95549405836516L1056.66908207799 392.95549405836516Q1056.66908207799 372.6807078046471 1063.4923274518374 355.8593192095294Q1070.3155728256847 339.01008063329397 1082.9316142720231 329.06763737425916Q1095.575505699479 319.15304409634217 1112.4247442757141 319.15304409634217L1112.4247442757141 319.15304409634217Q1121.2253383089214 319.15304409634217 1129.0511830030077 323.1634413772974Q1136.877027697094 327.1738386582526 1141.8900242982882 331.79693552379814L1141.8900242982882 331.79693552379814Q1146.7080710316577 336.1972325404018 1148.2955199553694 336.1972325404018L1148.2955199553694 336.1972325404018Q1149.9108188601986 336.1972325404018 1150.6070683881421 335.194633220163Q1151.3033179160857 334.1920338999242 1152.1109673685003 331.99188539162236L1152.1109673685003 331.99188539162236L1155.9264147816311 320.76834300117133L1160.9394113828253 320.76834300117133L1161.74706083524 382.9295008559771L1156.1213646494555 382.9295008559771Q1151.7210676328518 363.8801137714399 1144.7028723911803 350.9298725516887Q1137.6846771495086 338.00748131305517 1129.357532795303 331.79693552379814Q1121.0303884410973 325.5585397534234 1112.8146440113628 325.5585397534234L1112.8146440113628 325.5585397534234Q1093.7652569268255 325.5585397534234 1085.855862289386 342.82552804642495Q1077.918617670829 360.06466635830884 1077.918617670829 392.95549405836516L1077.918617670829 392.95549405836516Q1077.918617670829 426.82107109754253 1086.1343621005635 444.78430891848774Q1094.377956511416 462.7196967583152 1116.0173918399032 462.7196967583152L1116.0173918399032 462.7196967583152Q1135.2617287922649 462.7196967583152 1145.399121919124 448.3769564826768Q1155.536515045983 434.06206618815605 1156.92901410187 413.59233006661384L1156.92901410187 413.59233006661384L1164.142159211366 413.59233006661384Q1163.5573096078933 425.4285720416553 1159.2405625346428 438.0724634691113Q1154.9238154613927 450.6885049154495 1144.2851226744142 459.90684866542296Q1133.6742798685534 469.1530423965142 1116.0173918399032 469.1530423965142L1116.0173918399032 469.1530423965142ZM1212.2669265828285 467.9276432273334Q1201.656083776968 467.9276432273334 1193.913789026235 462.7196967583152Q1186.1993442566195 457.51175028929697 1186.1993442566195 444.28300925836834L1186.1993442566195 444.28300925836834Q1186.1993442566195 434.06206618815605 1191.4072907256377 428.24142013454747Q1196.6430871757739 422.4207740809388 1203.5498824929746 419.9142757803419Q1210.4566778101753 417.4077774797449 1220.287721144739 415.59752870709144L1220.287721144739 415.59752870709144L1238.7522586258037 412.19983101072665L1238.7522586258037 395.155642566667Q1238.7522586258037 376.49615521777815 1220.0927712769148 376.49615521777815L1220.0927712769148 376.49615521777815Q1213.2695259030672 376.49615521777815 1207.6716796984006 380.00525283861396Q1202.0459835126162 383.51435045944976 1202.0459835126162 387.9424974571711L1202.0459835126162 387.9424974571711Q1202.0459835126162 389.94769609764876 1202.6586830972067 390.95029541788756L1202.6586830972067 390.95029541788756Q1203.0485828328551 391.53514502136017 1203.9397822286228 392.1478446059505Q1204.8588316055084 392.7326942094232 1205.6664810579232 392.95549405836516L1205.6664810579232 392.95549405836516Q1209.259128622112 393.95809337860396 1211.1807773192363 395.7404921701396Q1213.074576035243 397.55074094279297 1213.074576035243 400.7534887713336L1213.074576035243 400.7534887713336Q1213.074576035243 404.98668590123077 1210.568077734646 406.76908469276646Q1208.061579434049 408.57933346541984 1204.2461320209181 408.57933346541984L1204.2461320209181 408.57933346541984Q1199.8458350043143 408.57933346541984 1196.2253374590075 405.181635769055Q1192.6326898948187 401.7560880915724 1192.6326898948187 395.35059243449115L1192.6326898948187 395.35059243449115Q1192.6326898948187 387.9424974571711 1196.7266371191272 382.51175113921096Q1200.8484343245532 377.1088548023685 1207.3653299061054 374.4074066339473Q1213.8822254876577 371.6781084844083 1220.705470861505 371.6781084844083L1220.705470861505 371.6781084844083Q1233.9342118924337 371.6781084844083 1243.5424553780558 378.6127537827267Q1253.1785488447954 385.51954909992736 1253.1785488447954 400.168639167861L1253.1785488447954 400.168639167861L1253.1785488447954 449.49095572738656Q1253.1785488447954 459.5169489297746 1259.389094634052 459.5169489297746L1259.389094634052 459.5169489297746Q1264.4020912352462 459.5169489297746 1266.6022397435481 453.696302876166Q1268.8302382329675 447.87565682255735 1268.8302382329675 439.4649625249985L1268.8302382329675 439.4649625249985L1272.4228857971566 439.4649625249985Q1272.4228857971566 451.49615436786416 1268.9137881763208 459.71189879759874Q1265.404690555485 467.9276432273334 1256.3812966733358 467.9276432273334L1256.3812966733358 467.9276432273334Q1247.775652507953 467.9276432273334 1243.4589054347025 462.83109668278615Q1239.142158361452 457.7067001571212 1238.7522586258037 448.6833062749719L1238.7522586258037 448.6833062749719L1237.7496593055648 448.29340653932354Q1234.7418613448485 455.31160178099515 1228.0021659143542 461.63354749472313Q1221.2903204649776 467.9276432273334 1212.2669265828285 467.9276432273334L1212.2669265828285 467.9276432273334ZM1215.4696744113692 460.71449811783765Q1224.4930682935183 460.71449811783765 1229.6174648191832 453.6127529328127Q1234.7418613448485 446.4831577666701 1238.7522586258037 435.4545652440433L1238.7522586258037 435.4545652440433L1238.7522586258037 416.4051781595061L1221.2903204649776 420.22062557263706Q1211.6820769793558 422.22582421311466 1207.3653299061054 428.1300202100765Q1203.0485828328551 434.06206618815605 1203.0485828328551 444.86785886184094L1203.0485828328551 444.86785886184094Q1203.0485828328551 454.1140525929322 1206.8640302459862 457.400350364826Q1210.679477659117 460.71449811783765 1215.4696744113692 460.71449811783765L1215.4696744113692 460.71449811783765ZM1283.6464281876079 465.53254485120743L1283.6464281876079 460.71449811783765L1292.0849724662844 460.71449811783765Q1294.4800708424104 460.71449811783765 1295.4826701626494 459.71189879759874Q1296.4852694828878 458.70929947736 1296.4852694828878 456.31420110123395L1296.4852694828878 456.31420110123395L1296.4852694828878 383.31940059162554Q1296.4852694828878 380.9243022154995 1295.4826701626494 379.9217028952607Q1294.4800708424104 378.9191035750219 1292.0849724662844 378.9191035750219L1292.0849724662844 378.9191035750219L1283.6464281876079 378.9191035750219L1283.6464281876079 374.1010568416521L1310.9394096829974 374.1010568416521L1310.9394096829974 394.1530432464282L1311.7192091542943 394.34799311425235Q1315.9524062841915 383.9321001762159 1322.664251733568 377.80510433031213Q1329.3760971829442 371.6781084844083 1337.0069920092064 371.6781084844083L1337.0069920092064 371.6781084844083Q1344.6100368543507 371.6781084844083 1349.4280835877203 376.1062554821297Q1354.2461303210903 380.50655249873336 1354.2461303210903 388.1374473249953L1354.2461303210903 388.1374473249953Q1354.2461303210903 392.53774434159897 1351.1269324359027 396.7430914903784Q1348.0355845318331 400.97628862027557 1343.2175377984631 400.97628862027557L1343.2175377984631 400.97628862027557Q1339.4020903853325 400.97628862027557 1336.7841921602644 398.97108997979797Q1334.1941439163138 396.96589133932036 1334.1941439163138 393.34539379401355L1334.1941439163138 393.34539379401355Q1334.1941439163138 389.1400466452341 1338.204541197269 386.1322486845177L1338.204541197269 386.1322486845177Q1340.0147899699227 384.9346994964547 1340.9059893656904 383.9321001762159Q1341.7971887614585 382.9295008559771 1341.7971887614585 381.31420195114794L1341.7971887614585 381.31420195114794Q1341.7971887614585 379.50395317849456 1340.098339913276 378.4178039149025Q1338.3994910650936 377.30380467019273 1335.3916931043773 377.30380467019273L1335.3916931043773 377.30380467019273Q1329.1811473151201 377.30380467019273 1323.4719011859825 383.31940059162554Q1317.7348050757273 389.33499651305834 1314.3371073793624 398.97108997979797Q1310.9394096829974 408.57933346541984 1310.9394096829974 419.02307638457404L1310.9394096829974 419.02307638457404L1310.9394096829974 456.31420110123395Q1310.9394096829974 458.70929947736 1311.9420090032363 459.71189879759874Q1312.9446083234752 460.71449811783765 1315.3397066996008 460.71449811783765L1315.3397066996008 460.71449811783765L1323.7504009971599 460.71449811783765L1323.7504009971599 465.53254485120743L1283.6464281876079 465.53254485120743ZM1370.287719444911 467.9276432273334L1370.287719444911 428.24142013454747L1373.8803670091002 428.24142013454747L1381.3163119675378 444.0880593905441Q1392.1499546223404 463.1374464750814 1409.3890929342242 463.1374464750814L1409.3890929342242 463.1374464750814Q1418.6074366841976 463.1374464750814 1423.1191336252723 458.6257495340068Q1427.630830566347 454.1140525929322 1427.630830566347 446.28820789884594L1427.630830566347 446.28820789884594Q1427.630830566347 441.6651110333003 1424.1217329455112 437.9610635446403Q1420.6126353246755 434.2570160559803 1414.7919892710665 432.0568675476785L1414.7919892710665 432.0568675476785L1391.9271547733983 422.81067381658727Q1381.1213620997137 418.4103767999837 1374.8829663293386 412.19983101072665Q1368.672420540082 405.9892852214696 1368.672420540082 396.35319175472995L1368.672420540082 396.35319175472995Q1368.672420540082 384.1270500440401 1376.3033153663437 377.9165042547831Q1383.906360211488 371.6781084844083 1395.5476523187053 371.6781084844083L1395.5476523187053 371.6781084844083Q1401.3682983723138 371.6781084844083 1406.4648449168612 373.5997571815327Q1411.5892414425261 375.49355589753935 1414.986939138891 378.1114541226073L1414.986939138891 378.1114541226073Q1419.4150861366124 381.31420195114794 1421.6152346449144 381.31420195114794L1421.6152346449144 381.31420195114794Q1424.233132869982 381.31420195114794 1424.8179824734548 377.6937044058412L1424.8179824734548 377.6937044058412L1425.235732190221 373.68330712488597L1428.82837975441 373.68330712488597L1428.82837975441 404.1790364488162L1425.235732190221 404.1790364488162L1422.4228840973287 397.1608412071446Q1417.7997872317833 385.7144989677516 1410.2802923299919 381.1192520833237Q1402.760797428201 376.49615521777815 1395.3527024508812 376.49615521777815L1395.3527024508812 376.49615521777815Q1387.9167574924431 376.49615521777815 1383.126560740191 380.2002027064382Q1378.3085140068215 383.9321001762159 1378.3085140068215 390.53254570112136L1378.3085140068215 390.53254570112136Q1378.3085140068215 396.35319175472995 1383.0151608157203 400.05723924339003Q1387.721807624619 403.76128673205 1395.9375520543535 407.1868344095326L1395.9375520543535 407.1868344095326L1417.6048373639592 416.21022829168186Q1427.2409308306987 420.22062557263706 1432.0311275829504 425.9298717017747Q1436.8491743163204 431.6391178309123 1436.8491743163204 441.86006090112454L1436.8491743163204 441.86006090112454Q1436.8491743163204 455.31160178099515 1429.2461294711761 461.63354749472313Q1421.6152346449144 467.9276432273334 1409.1941430664 467.9276432273334L1409.1941430664 467.9276432273334Q1401.7581981079625 467.9276432273334 1397.1629512235345 465.9224445868558Q1392.539854357989 463.9172459463782 1388.1395573413852 460.5195482500134L1388.1395573413852 460.5195482500134Q1386.329308568732 459.1270491941262 1384.5190597960782 458.1244498738874Q1382.708811023425 457.1218505536485 1381.3163119675378 457.1218505536485L1381.3163119675378 457.1218505536485Q1376.4982652341678 457.1218505536485 1374.6880164615145 463.9172459463782L1374.6880164615145 463.9172459463782L1373.8803670091002 467.9276432273334L1370.287719444911 467.9276432273334Z " fill="dodgerblue" transform="matrix(0.6089713854812658,0,0,0.6089713854812658,0,59.97207537077401)"/></g></svg>